<?xml version="1.0" encoding="UTF-8"?><svg id="Layer_1" xmlns="http://www.w3.org/2000/svg" viewBox="0 0 200 200"><defs><style>.cls-1{fill:#fff;}</style></defs><path d="M188.27,70.49v1.86c-1.95.97-3.87.4-6.02,1.09-2.28.74-3.22,2.85-4.89,3.78-1.76.98-6.44,1.81-8.56,1.96-.81.06-3.15.55-2.81-.94,2.93-1.67,7.19-1.54,10.08-2.93,1.68-.81,2.42-2.7,4.43-3.61,2.19-.99,5.38-1.29,7.78-1.2Z"/><path d="M188.27,82.25v1.86c-6.68-.22-13.44.3-20.12,0-.82-.04-2.6.51-2.16-.92.39-1.29,19.54-.88,22.29-.93Z"/><path d="M188.27,111.95v1.86c-1.49.17-10.25-.16-10.53-.93-.49-1.4,1.39-.89,2.16-.92,2.78-.13,5.59.09,8.36,0Z"/><path d="M141.23,81.62c-.2-3.77.26-7.67-.01-11.44-.2-2.8-.93-10.39-1.52-12.71-.2-.78-5.94-11.1-6.5-11.45-2.61-1.67-1.18,1.08-2.49,1.56.38-1.02-1.96-6.09-3.1-4.94-.06,2.96,7.33,15.78,6.18,17.32-4.53-3.68-5.58-10.13-8.13-15.08-.94-1.82-3.61-3.74-3.64-6.58-1.57-.23-2.05,1.55-2.58,2.67-1.87,3.9-2.64,9.27-4.22,13.42-1.86.48-1.32-1.48-1.16-2.72.27-2.06,3.62-11.43,3.02-12.13-4.57,1.27-6.29,5.26-8.96,8.05-3.63,3.79-7.31,7.64-11.15,11.13-.99-.58.23-1.39.56-1.91,2.97-4.8,6.93-8.81,7.79-14.79-1.29-.29-1.41.68-1.99,1.41-2.6,3.25-4.74,8.48-7.88,11.3-.61.54-5.2,2.54-4.97,1.83l6.18-12.07c-1.58-.28-1.31.03-2.04.76-3.56,3.61-5.4,9.99-9.41,13.47-.85-5.08,4.95-9.2,6.5-13.93-.62-1.01-1.37.21-1.86.62-1.02.85-9.56,10.55-9.77,11.27-.72,2.44.11,7.44-.14,10.38-.42,4.91-2.08,9.9-1.23,15.17-1.13.25-1.21-.34-1.75-1.03-7.45-9.59-8.22-15.09-6.25-27.07,3.06-18.56,28.45-31.05,45.88-27.4,5.54,1.16,19.17,7.17,23.1,10.94,6.79,6.5,8.92,14.73,9.57,23.85.64,9.04.08,12.69-6.19,19.16-.59.61-.81,1.17-1.84.94Z"/><path d="M71.9,77.91c1.35,1.15-1.52,10.4,1.24,11.76.39-2.59,2.36-4.74,1.25-7.42,5.6.89,1.6,3.6,1.83,5.85.14,1.32,2.23,2.57,2.5,4.04l-5.57-1.85c.16,2.82,3.78,7.24,6.7,5.46.93-.57.86-4.35,1.95-4.84.24,3.82,1.37,8.72,2.98,12.19,5.41,11.68,14.46,20.52,28.28,19.36,9.7-.82,21.6-13.14,24.15-22.26.57-2.03-.41-4.73,1.53-5.58-.27,2.95,2.26,2.86,4.52,2.34,2.51-.57,2.52-2.63,3.62-4.42.39-.63,1.29-1.9,1.14-.1-1.55,3.54-1.94,5.88-6.02,6.99-.96.26-2.63-.1-3.16.23-.28.18-1.3,4.28-1.83,5.28-.77,1.46-5.17,8.59-6.02,9.46-1.16,1.19-2.43,1.21-3.08,1.87-5.74,5.68-9.67,12.72-15.13,18.29-3.74,3.81-7.19,5.96-12.55,7-4.87-2.85-14.59-13.92-14.59-19.41,0-1.89,1.46-3.29,2.67-1.53.87,1.26.13,3.88.64,4.91.43.86,4.39,6.12,5.25,7.14,6.71,7.97,10.21,7.59,17.52.25l8.46-9.82c-11.17,3.74-23.28.65-30.02-9.28-1.26,1.63,1.9,5.54-.93,5.88-.21-.17-1.6-3.91-1.74-4.52-.22-.96.34-1.91.16-2.68-1.04-4.6-6.88-9.54-6.15-15.41l-4.84,1.15c-6.12-4.29-7.87-12.69-6.94-19.72l2.17-.61Z"/><path d="M172.18,121.23c-9.89,1.61-20.03-.85-30.04-.02-.94.08-5.22.63-5.23,1.57,1.75,1.79,1.81,3.69,3.85,5.42,3.9,3.28,14.4,6.4,19.45,9.02,6.77,3.52,8.92,5.94,11.82,12.94,3.89,9.41,6.61,20.21,10.05,29.86-1.32.25-1.44-.61-1.89-1.51-4.61-9.09-6-21.23-10.57-30.31-.33-.66-1.37-.77-1.76-1.46-.51-.9-.34-2.29-1.23-3.56-.79-1.12-3.07-2.36-4.32-3.1-4.35-2.6-12.57-6.23-17.37-8-4.48-1.65-2.9-.84-3.22,1.83-.84,7.01,1.18,20.46-8.27,21.96-4.82.77-15.72-7.47-21.91-5.56-1.67-1.26,4.94-2.32,4.94-3.41l-1.85-1.85c2.05-.92,4.51.22,6.5.92,2.7.96,13.3,6.9,15.16,5.92,2.8-1.48,3.68-17.77,2.97-20.95-.11-.5-4.22-8.68-4.52-9.09-1.03-1.38-6.22-2.7-4.63-4.34.54-.55,5.24,1.71,6.49,1.85,3.95.44,8.18-.81,12.41-.64,2.7.11,5.95,1.09,8.64,1.26,3.98.25,8.57-.45,12.4-.02.93.1,1.91.13,2.14,1.25Z"/><path d="M84.9,116.29l-5.24,7.44c-3.57,4.22-7.73,3.34-5.95,10.81.63,2.64,6.28,15.7,8.55,16.31,2.61.7,14.45-4.71,17.8-5.48,1.23.78.53,1.37.32,2.47h3.72c1.64,7.8-6.4,7.4-4.34.63l-3.12,1.03c-.38,4.6,3.82,7.88,3.74,12.58-1.79.35-.99-.53-1.39-1.36-.89-1.81-3.68-9.55-4.8-10.13-2.54-1.32-10.56,4.91-15.04,2.24-2.18-1.3-5.05-11.98-6.32-14.88-1.16-2.65-1.64-4.9-4.93-5.02-4.49-.17-20.81,6.51-23.26,10.25-.61.92-.37,1.9-.77,2.63-.91,1.66-1.9,1.12-2.28,4.83-.72,7.06.43,14.95,1.23,21.96-1.28.54-2.1-2.3-2.23-2.91-.43-2.05-.42-5.85-.44-8.08-.04-3.4-1.01-3.28-2.25-.44-2.23,5.09-3.3,12.58-5.74,17.16-.49.92-1.34,1.91-2.33,2.31.84-5.79,3.08-11.95,4.99-17.59,1.49-4.38,3.34-9.94,5.04-14.14,2.52-6.22,5.48-9.14,11.49-12.03,4.45-2.14,17.34-5.58,20.1-7.59.52-.38,5.89-5.06,6.37-5.56,2.18-2.27,2.94-7.15,7.08-7.46Z"/><path d="M47.77,107.63c.87.91-.07,1.12-.92,1.23-2.28.3-4.12-.61-6.17-.65-5.39-.09-13.29.5-18.31,1.49-2.48.49-5.05,2.78-8.64,1.63-.97-.74-.01-1.13.91-1.24.49-.06,8.44.24,6.51-1.84-.29-.31-5.08-.98-5.9-.94-2.42.13-5.55,3.04-5.24-2.16,1.84.33,3.96-.4,5.66-.27,3.79.31,5.28.79,9.48.85,1.87.03,7.01.61,8.1.44.73-.11,1.05-.96.9-1.65-.81.06-1.5-.16-2.17-.6-4.92-3.25-5.5-5.85-12.35-6.85-.8-.12-4.33-.44-4.66.63,2.28-.33,3.09,2.27,4.91,2.83.63.19,6.61.23,4.38,1.83-4,2.86-5.18-.63-7.22-2.13-3.18-2.34-5.3,4.45-7.02,1.2l4.32-2.79c-1.67-2.47-5.26-.9-4.32-4.64,3.3,1.2,7.49-.04,10.55.89,3.88,1.18,7.68,3.28,11.06,5.65.68.48.88,1.57,2.07,2.27,2.58,1.52,12.91,3.6,14.07,4.82Z"/><path d="M97.48,104.35c-.43-.46-1.08-1.56-.22-2.01,3.04-.16,5.44-1.79,8.49-1.9,2.44-.09,8.57.13,10.89.53.89.15,6.55,2.23,6.64,2.65-.28,1.88-2.68,2.26-3.73,3.69-.68.91-.74,2.15-1.31,3.02-3.29,5.03-10.78,4.57-14.98.92-1.74-1.52-2.21-3.49-3.49-5.18-.69-.91-1.75-1.11-2.3-1.71ZM117.71,103.29c-5.39.94-10.67.16-16.09,0,.24,2.42,6.33,3.68,8.38,3.73s8.53-.62,7.71-3.73ZM117.71,108.24l-15.48.3c4.41,3.39,11.67,4.53,15.48-.3Z"/><path d="M103.47,92.76c2-.38,5.06,1.83,6.5,1.82,1.64,0,7.63-3.62,8.35.65-3.42.22-6.76,2.36-10.17,1.83s-4.51-2.67-6.58-4.68c2.97-6.35,5.29-13.43,2.46-20.26l1.89-1.02c1.54,3.62,2.36,6.76,1.82,10.78-.13.97-1.6,6.56-1.93,7.35-.59,1.41-3.01,1.23-2.35,3.53Z"/><path d="M130.09,179.71l-1.24.63c-1.26-3.6-2.02-11.11,2.94-11.93,1.94-.32,9.86.26,12.22.48,7.88.75,8.23,6.21,4.04,11.75l.51-7.68c-.11-.48-.5-.68-.87-.93-.57-.38-12.13-1.91-13.6-1.94s-2.61.62-4,.64v8.97Z"/><path d="M105.95,157.12c1.6,1.47,6.3-6.66,9.28-4.64-.85,3.32-8.62,5.4-9.58,6.51-2.41,2.77-3.5,13.06-2.18,16.7l-2.47-1.85c.38,1.36.43,5.79-1.86,5.56-.74-1.74,1.14-1.81,1.23-2.27.79-4.36.43-9.3,1.54-13.84,1.32-5.42,5.71-9.41,3.43-15.45,5.7-.62.09,8.79.62,9.28Z"/><path d="M168.46,154.04c.47.59-3.09,8.98-3.8,10.12-.9,1.46-2.57,1.93-2.97,2.75-.49.98-1.75,5.99-2.14,7.47-.55,2.09.34,4.85-1.92,6.26-1.1-.73-.91-1.64-.97-2.76-.27-4.71,2.74-11.13,3.76-15.79l.62,1.85c3.3-1.85,3.73-5.8,5.82-8.74.52-.73.02-1.52,1.6-1.16Z"/><path d="M45.9,146.61c5.16,10.25,10.42,21.64,9.91,33.41-2.2,2.57-2.77-8.58-2.9-9.17-1.1-5.1-2.47-9.92-3.56-15-.71-3.29-3.92-5.21-4.59-8.42-.25-1.19.15-.83,1.13-.82Z"/><path d="M129.41,120.67c.38.24,1.31,4.2,1.26,5.12-.24,4.62-6.78,13.51-10.46,16.21-.85.62-1.25,1.17-2.5.9,2.48-5.88,9.86-10.12,10.5-17.09.14-1.58-1.8-7.05,1.2-5.13Z"/><path d="M58.28,153.42c1.46,1.38,4.57,21.07,4.63,24.17.02.79.63,1.01-.6,1.8-1.36-.04-2.3-9.21-2.17-11.11l-1.89-.35c.8-4.65-.92-9.19-1.2-13.6-.08-1.23.13-.97,1.23-.92Z"/><path d="M85.53,70.49c.05-4.65,9.83-5.84,13.33-5.6,2.56.18,4.28,1.3,1.21,2.51-4.32,1.7-10.07,1.01-14.54,3.1Z"/><path d="M125.46,75.15c1.11.06,7.06,1.39,7.09,2.46-.75,1.14-1.64.87-2.75.96-2.54.2-6.74.83-8.9.18-6.36-1.93,1.44-3.74,4.56-3.59Z"/><path d="M132.56,69.24c-3.37,1.08-7-.45-10.37-1.08-1.41-.26-3.61,1.3-3.86-2.01,1.57-.16,3.02-.69,4.64-.68,1.2,0,11.19,1.66,9.59,3.76Z"/><path d="M88.62,77.29c1.32-3.23,12.44-3.24,12.99-.91.78,3.33-11.4,1.41-12.99.91Z"/><path d="M45.29,153.72c0-.15-1.18-.83-.3-.93h.91s2.28,19.52,2.28,19.52l-1.02.9c.28-1.82-1.86-5.16-1.86-6.5,0-4.32.15-8.68,0-13Z"/><path d="M106.1,171.21c-2.97-2.91,3.04-9.17,4.67-3.74,1.27,4.24-2.21,6.15-4.67,3.74Z"/><path d="M143.63,84.19c.23.14,1.96,4.27,1.84,5.04-.17,1.07-2.83,4.35-3.61,3.54.01-1.55,1.28-2.32,1.28-4.02,0-1.02-2.91-6.71.5-4.55Z"/><path d="M74.08,112.57c.81.09,2.13,1.11,3.4.62,2.07,1.66-9.04.91-10.21.61-.86-.22-1.93.02-2.17-1.23,2.89.22,6.14-.3,8.97,0Z"/><path d="M160.42,161.46c1.53-4.51,3.03-10.57,6.8-13.61l-.72,2.68-6.08,10.93Z"/><path d="M148.65,90.29c-1.06-.29-.58-2.3-1.09-3.55-.62-1.51-1.86-2.68-2.48-4.19l3.26-3.39c.34,1.76-.4,3.41-.36,5.27s1.02,3.84.66,5.87Z"/><polygon points="114.62 169.5 113.33 163.62 114.62 158.36 114.62 169.5"/><path class="cls-1" d="M117.71,103.29c.83,3.11-5.59,3.79-7.71,3.73s-8.14-1.3-8.38-3.73c5.42.16,10.7.94,16.09,0Z"/><path class="cls-1" d="M117.71,108.24c-3.81,4.84-11.07,3.69-15.48.3l15.48-.3Z"/></svg>